<svg width="330" height="338" viewBox="0 0 330 338" fill="none" xmlns="http://www.w3.org/2000/svg">
<g filter="url(#filter0_d_352_4142)">
<rect y="164.96" width="233.288" height="233.288" rx="20" transform="rotate(-45 0 164.96)" fill="#284B30"/>
</g>
<path d="M165 30.045L165.08 29.5514L165 29.5385L164.92 29.5514L165 30.045ZM165 30.045C164.92 29.5514 164.92 29.5515 164.92 29.5515L164.919 29.5517L164.917 29.552L164.91 29.5532L164.886 29.5573C164.866 29.5609 164.838 29.5662 164.802 29.5733C164.729 29.5876 164.625 29.6095 164.493 29.6408C164.229 29.7034 163.853 29.8038 163.395 29.9562C162.48 30.2609 161.235 30.7751 159.906 31.6156C157.242 33.3009 154.248 36.2942 152.906 41.5002L152.683 42.3632L153.536 42.1033C157.959 40.7546 160.94 38.1148 162.811 35.8191C163.747 34.6711 164.407 33.6066 164.835 32.8268C164.907 32.6951 164.973 32.5715 165.032 32.4569C165.135 32.6356 165.253 32.8371 165.387 33.0571C165.929 33.9473 166.728 35.1467 167.754 36.3831C169.792 38.839 172.795 41.5205 176.533 42.104L177.284 42.2213L177.094 41.485C175.752 36.2864 172.758 33.2969 170.093 31.6136C168.764 30.7741 167.52 30.2603 166.605 29.9559C166.147 29.8036 165.771 29.7034 165.507 29.6408C165.375 29.6095 165.271 29.5876 165.198 29.5733C165.162 29.5661 165.134 29.5609 165.114 29.5573L165.09 29.5532L165.083 29.552L165.081 29.5517L165.08 29.5515C165.08 29.5515 165.08 29.5514 165 30.045ZM165.418 36.5509L165 35.913L164.582 36.5509C161.531 41.2056 156.387 44.3233 150.506 44.4928C150.659 37.4861 153.977 33.3141 157.409 30.8486C160.784 28.4238 164.279 27.6466 165.003 27.508C165.719 27.639 169.214 28.4152 172.591 30.8429C176.023 33.3102 179.341 37.4858 179.494 44.4928C173.613 44.3233 168.469 41.2056 165.418 36.5509ZM164.498 52.4759L164.917 53.1605L165.347 52.4829C166.37 50.8708 167.083 49.0894 167.469 47.232L167.535 46.9174L167.276 46.7271L165.296 45.2721L165.002 45.0559L164.706 45.2704L162.681 46.7404L162.424 46.9271L162.484 47.2392C162.84 49.0965 163.521 50.8783 164.498 52.4759ZM164.91 56.2828C162.126 53.3318 160.6 49.6419 160.273 45.8398C162 44.8854 163.59 43.7013 164.998 42.3202C166.4 43.7076 167.99 44.8919 169.721 45.8384C169.324 49.6123 167.729 53.3037 164.91 56.2828Z" stroke="white"/>
<path d="M165 299.955L164.92 300.449L165 300.462L165.08 300.449L165 299.955ZM165 299.955C165.08 300.449 165.08 300.449 165.08 300.449L165.081 300.448L165.083 300.448L165.09 300.447L165.114 300.443C165.134 300.439 165.162 300.434 165.198 300.427C165.271 300.412 165.375 300.391 165.507 300.359C165.771 300.297 166.147 300.196 166.605 300.044C167.52 299.739 168.765 299.225 170.094 298.384C172.758 296.699 175.752 293.706 177.094 288.5L177.317 287.637L176.464 287.897C172.041 289.245 169.06 291.885 167.189 294.181C166.253 295.329 165.593 296.393 165.165 297.173C165.093 297.305 165.027 297.429 164.968 297.543C164.865 297.364 164.747 297.163 164.613 296.943C164.071 296.053 163.272 294.853 162.246 293.617C160.208 291.161 157.205 288.48 153.467 287.896L152.716 287.779L152.906 288.515C154.248 293.714 157.242 296.703 159.907 298.386C161.236 299.226 162.48 299.74 163.395 300.044C163.853 300.196 164.229 300.297 164.493 300.359C164.625 300.391 164.729 300.412 164.802 300.427C164.838 300.434 164.866 300.439 164.886 300.443L164.91 300.447L164.917 300.448L164.919 300.448L164.92 300.449C164.92 300.449 164.92 300.449 165 299.955ZM164.582 293.449L165 294.087L165.418 293.449C168.469 288.794 173.613 285.677 179.494 285.507C179.341 292.514 176.023 296.686 172.591 299.151C169.216 301.576 165.721 302.353 164.997 302.492C164.281 302.361 160.786 301.585 157.409 299.157C153.977 296.69 150.659 292.514 150.506 285.507C156.387 285.677 161.531 288.794 164.582 293.449ZM165.502 277.524L165.083 276.84L164.653 277.517C163.63 279.129 162.917 280.911 162.531 282.768L162.465 283.083L162.724 283.273L164.704 284.728L164.998 284.944L165.294 284.73L167.319 283.26L167.576 283.073L167.516 282.761C167.16 280.904 166.479 279.122 165.502 277.524ZM165.09 273.717C167.874 276.668 169.4 280.358 169.727 284.16C168 285.115 166.41 286.299 165.002 287.68C163.6 286.292 162.01 285.108 160.279 284.162C160.676 280.388 162.271 276.696 165.09 273.717Z" stroke="white"/>
<path d="M76.4304 181.49C74.1438 181.49 72.4404 181.093 71.3204 180.3C70.2471 179.46 69.7104 178.153 69.7104 176.38C69.7104 176.1 69.7104 175.82 69.7104 175.54C69.7571 175.26 69.8038 174.98 69.8504 174.7C69.9904 173.627 70.3171 172.227 70.8304 170.5C71.3438 168.727 72.0204 166.767 72.8604 164.62C71.9271 164.573 70.9704 164.527 69.9904 164.48C69.0104 164.387 68.2171 164.27 67.6104 164.13C67.0038 163.99 66.7238 163.827 66.7704 163.64C67.4704 161.587 68.2171 160.163 69.0104 159.37C69.8038 158.53 70.7838 158.11 71.9504 158.11C72.6504 158.11 73.3738 158.203 74.1204 158.39C74.3071 158.437 74.4938 158.483 74.6804 158.53C74.8671 158.577 75.0771 158.623 75.3104 158.67C76.1038 156.99 76.9204 155.31 77.7604 153.63C78.6471 151.95 79.5804 150.34 80.5604 148.8C80.7471 148.567 81.0738 148.053 81.5404 147.26C82.0071 146.467 82.4504 145.627 82.8704 144.74C83.3371 143.853 83.5704 143.177 83.5704 142.71C83.5704 142.243 83.2671 142.103 82.6604 142.29C81.8671 142.57 80.9338 143.177 79.8604 144.11C78.7871 145.043 77.6204 146.117 76.3604 147.33C75.1004 148.543 73.7704 149.733 72.3704 150.9C71.0171 152.02 69.6171 152.977 68.1704 153.77C66.7704 154.517 65.3938 154.89 64.0404 154.89C63.7138 154.89 63.3638 154.867 62.9904 154.82C62.6638 154.773 62.3138 154.68 61.9404 154.54C61.1471 154.26 60.7504 153.56 60.7504 152.44C60.7504 151.367 61.0538 150.107 61.6604 148.66C62.3138 147.167 63.1071 145.743 64.0404 144.39C64.2738 144.11 64.6938 143.97 65.3004 143.97C65.9071 143.97 66.1404 144.11 66.0004 144.39C65.7671 144.81 65.6504 145.137 65.6504 145.37C65.6504 145.51 65.6971 145.58 65.7904 145.58C65.9304 145.58 66.0238 145.627 66.0704 145.72C66.4438 145.953 66.8638 146.07 67.3304 146.07C68.3104 146.07 69.5704 145.743 71.1104 145.09C72.6971 144.437 74.4004 143.643 76.2204 142.71C78.0871 141.73 79.9304 140.773 81.7504 139.84C83.6171 138.907 85.3438 138.183 86.9304 137.67C88.5171 137.11 89.8238 136.923 90.8504 137.11C91.6438 137.297 92.3438 137.857 92.9504 138.79C93.6038 139.723 94.0238 140.54 94.2104 141.24C94.3504 141.66 94.4204 142.103 94.4204 142.57C94.4204 142.99 94.3271 143.433 94.1404 143.9C94.0004 144.32 93.7438 144.787 93.3704 145.3C91.4571 147.82 89.6604 150.317 87.9804 152.79C86.3004 155.217 84.7838 157.597 83.4304 159.93C83.7104 159.977 83.9671 160.023 84.2004 160.07C84.4338 160.07 84.5971 160.047 84.6904 160C85.9038 159.953 86.6971 159.86 87.0704 159.72C87.4904 159.58 87.7238 159.487 87.7704 159.44C86.4638 162.1 84.2004 163.78 80.9804 164.48C79.4871 167.327 78.3204 169.963 77.4804 172.39C76.6404 174.77 76.2204 176.753 76.2204 178.34C76.2204 179.507 76.4771 180.393 76.9904 181C77.0838 181.187 77.1304 181.28 77.1304 181.28C77.1304 181.42 76.8971 181.49 76.4304 181.49ZM95.9407 181.49C94.0274 181.49 92.5107 181.21 91.3907 180.65C90.3174 180.09 89.5241 179.273 89.0107 178.2C88.5441 177.127 88.3107 175.867 88.3107 174.42C88.3107 171.947 88.8707 169.147 89.9907 166.02C91.1574 162.893 92.5107 159.907 94.0507 157.06C94.6574 155.94 95.3807 154.633 96.2207 153.14C97.1074 151.6 98.0874 150.083 99.1607 148.59C100.281 147.097 101.447 145.813 102.661 144.74C103.921 143.62 105.204 142.943 106.511 142.71C107.304 142.57 108.074 142.5 108.821 142.5C110.034 142.5 110.944 142.617 111.551 142.85C112.624 143.27 113.161 143.69 113.161 144.11C113.161 144.39 112.927 144.53 112.461 144.53C112.274 144.53 112.017 144.647 111.691 144.88C111.364 145.067 111.061 145.3 110.781 145.58C108.727 147.633 106.464 150.69 103.991 154.75C101.984 158.017 100.304 161.237 98.9507 164.41C97.5974 167.537 96.5941 170.757 95.9407 174.07C95.8007 174.91 95.7307 175.61 95.7307 176.17C95.7307 177.15 95.8941 177.85 96.2207 178.27C96.5474 178.69 96.9441 178.9 97.4107 178.9C98.3441 178.9 99.4174 178.363 100.631 177.29C101.891 176.217 102.894 175.05 103.641 173.79C104.621 172.437 105.484 171.037 106.231 169.59C107.024 168.097 107.677 166.837 108.191 165.81C108.377 165.483 108.634 165.32 108.961 165.32C109.241 165.32 109.497 165.46 109.731 165.74C109.964 166.02 109.987 166.347 109.801 166.72C109.101 168.12 108.214 169.777 107.141 171.69C106.114 173.603 104.971 175.307 103.711 176.8C102.544 178.2 101.284 179.343 99.9307 180.23C98.6241 181.07 97.2941 181.49 95.9407 181.49ZM116.014 181.49C113.028 181.49 110.694 181 109.014 180.02C107.334 179.04 106.494 177.15 106.494 174.35C106.494 172.39 106.798 170.337 107.404 168.19C108.058 165.997 108.968 163.873 110.134 161.82C111.301 159.767 112.678 157.9 114.264 156.22C115.851 154.54 117.601 153.21 119.514 152.23C121.428 151.203 123.458 150.69 125.604 150.69C127.004 150.69 128.334 150.807 129.594 151.04C130.854 151.273 131.881 151.81 132.674 152.65C133.468 153.443 133.864 154.703 133.864 156.43C133.864 158.25 133.374 160.607 132.394 163.5C131.414 166.393 130.084 169.217 128.404 171.97C128.311 172.343 128.264 172.717 128.264 173.09C128.264 173.603 128.358 174.117 128.544 174.63C128.778 175.143 129.174 175.4 129.734 175.4C130.481 175.4 131.251 174.887 132.044 173.86C132.884 172.693 133.748 171.293 134.634 169.66C135.521 168.027 136.198 166.697 136.664 165.67C136.758 165.39 136.968 165.25 137.294 165.25C137.621 165.25 137.901 165.39 138.134 165.67C138.414 165.95 138.438 166.277 138.204 166.65C137.831 167.35 137.341 168.33 136.734 169.59C136.128 170.803 135.428 172.04 134.634 173.3C133.841 174.56 132.978 175.563 132.044 176.31C131.344 176.87 130.598 177.15 129.804 177.15C128.871 177.15 128.171 176.94 127.704 176.52C127.238 176.053 126.864 175.4 126.584 174.56C125.091 176.567 123.434 178.223 121.614 179.53C119.794 180.837 117.928 181.49 116.014 181.49ZM114.684 179.32C115.198 179.32 115.898 178.643 116.784 177.29C117.671 175.937 118.628 174.21 119.654 172.11C120.681 169.963 121.684 167.793 122.664 165.6C122.851 165.227 123.154 164.55 123.574 163.57C123.994 162.543 124.438 161.423 124.904 160.21C125.371 158.95 125.768 157.737 126.094 156.57C126.421 155.403 126.584 154.47 126.584 153.77C126.584 152.977 126.351 152.58 125.884 152.58C125.464 152.58 124.928 153 124.274 153.84C123.621 154.633 122.898 155.683 122.104 156.99C121.311 158.297 120.541 159.697 119.794 161.19C119.048 162.683 118.394 164.083 117.834 165.39C117.274 166.697 116.691 168.167 116.084 169.8C115.478 171.433 114.964 172.997 114.544 174.49C114.171 175.937 113.984 177.103 113.984 177.99C113.984 178.877 114.218 179.32 114.684 179.32ZM146.973 181.56C144.64 181.56 142.983 180.907 142.003 179.6C141.07 178.247 140.603 176.707 140.603 174.98C140.603 173.44 140.93 171.737 141.583 169.87C142.237 167.957 143.03 166.043 143.963 164.13C144.943 162.17 145.947 160.303 146.973 158.53C148 156.757 148.887 155.17 149.633 153.77C149.167 153.863 148.677 153.957 148.163 154.05C147.697 154.097 147.23 154.12 146.763 154.12C145.69 154.12 144.757 153.957 143.963 153.63C143.917 153.817 143.847 154.003 143.753 154.19C143.66 154.377 143.59 154.517 143.543 154.61C142.517 157.317 141.42 159.953 140.253 162.52C139.087 165.087 138.037 167.187 137.103 168.82C136.497 169.893 135.96 170.43 135.493 170.43C135.12 170.43 134.933 170.15 134.933 169.59C134.933 169.217 135.027 168.867 135.213 168.54C136.147 166.767 137.22 164.527 138.433 161.82C139.693 159.113 140.837 156.36 141.863 153.56C141.91 153.467 141.957 153.303 142.003 153.07C142.097 152.79 142.167 152.557 142.213 152.37C141.607 151.623 141.303 150.643 141.303 149.43C141.303 148.637 141.513 147.867 141.933 147.12C142.353 146.327 143.007 145.93 143.893 145.93C144.407 145.93 144.873 146.117 145.293 146.49C145.76 146.863 145.993 147.447 145.993 148.24C145.993 149.173 145.667 150.2 145.013 151.32C145.107 151.647 145.41 151.903 145.923 152.09C146.437 152.23 146.997 152.3 147.603 152.3C148.257 152.3 148.887 152.207 149.493 152.02C150.147 151.833 150.59 151.553 150.823 151.18C151.243 150.62 151.943 150.34 152.923 150.34C153.763 150.34 154.697 150.573 155.723 151.04C156.283 151.32 156.75 151.74 157.123 152.3C157.497 152.813 157.683 153.467 157.683 154.26C157.683 155.66 157.077 157.433 155.863 159.58C154.557 162.007 153.203 164.62 151.803 167.42C150.45 170.22 149.447 172.74 148.793 174.98C148.607 175.587 148.513 176.17 148.513 176.73C148.513 177.71 148.817 178.2 149.423 178.2C150.077 178.2 150.8 177.78 151.593 176.94C152.433 176.1 153.25 175.097 154.043 173.93C155.07 172.437 156.003 170.85 156.843 169.17C157.73 167.49 158.337 166.323 158.663 165.67C158.803 165.39 159.013 165.25 159.293 165.25C159.573 165.25 159.83 165.413 160.063 165.74C160.343 166.02 160.39 166.347 160.203 166.72C159.597 167.98 158.757 169.613 157.683 171.62C156.61 173.58 155.397 175.423 154.043 177.15C153.063 178.41 151.99 179.46 150.823 180.3C149.657 181.14 148.373 181.56 146.973 181.56ZM161.985 181.42C159.699 181.42 158.089 180.907 157.155 179.88C156.269 178.807 155.825 177.477 155.825 175.89C155.825 174.21 156.129 172.413 156.735 170.5C157.389 168.54 158.112 166.743 158.905 165.11C159.745 163.43 160.399 162.147 160.865 161.26C162.779 157.713 164.972 155.123 167.445 153.49C169.965 151.857 172.742 151.04 175.775 151.04C176.849 151.04 178.109 151.087 179.555 151.18C181.002 151.273 182.472 151.32 183.965 151.32C184.712 151.32 185.435 151.297 186.135 151.25C186.835 151.203 187.512 151.18 188.165 151.18H188.445C189.239 151.18 189.635 151.32 189.635 151.6C189.635 151.787 189.355 151.997 188.795 152.23C188.189 152.463 187.465 153.257 186.625 154.61C185.785 155.917 184.922 157.503 184.035 159.37C183.149 161.237 182.309 163.127 181.515 165.04C181.095 166.113 180.535 167.56 179.835 169.38C179.135 171.153 178.622 172.973 178.295 174.84C178.249 175.167 178.202 175.47 178.155 175.75C178.155 175.983 178.155 176.217 178.155 176.45C178.155 177.617 178.459 178.2 179.065 178.2C179.812 178.2 180.582 177.803 181.375 177.01C182.169 176.217 182.939 175.26 183.685 174.14C184.339 173.16 184.992 172.063 185.645 170.85C186.299 169.637 186.882 168.517 187.395 167.49C187.909 166.417 188.282 165.67 188.515 165.25C188.655 164.97 188.842 164.83 189.075 164.83C189.355 164.83 189.612 165.04 189.845 165.46C190.079 165.833 190.102 166.207 189.915 166.58C189.029 168.307 188.072 170.15 187.045 172.11C186.019 174.07 184.899 175.843 183.685 177.43C181.632 180.09 179.252 181.42 176.545 181.42C174.492 181.42 172.975 180.79 171.995 179.53C171.062 178.27 170.595 176.753 170.595 174.98C170.595 174.187 170.665 173.417 170.805 172.67C170.292 173.51 169.662 174.607 168.915 175.96C168.169 177.267 167.305 178.457 166.325 179.53C165.392 180.603 164.342 181.21 163.175 181.35C162.989 181.35 162.802 181.35 162.615 181.35C162.429 181.397 162.219 181.42 161.985 181.42ZM164.575 177.85C165.042 177.85 165.649 177.43 166.395 176.59C167.189 175.75 167.982 174.7 168.775 173.44C169.615 172.133 170.339 170.827 170.945 169.52C171.085 169.147 171.412 168.353 171.925 167.14C172.485 165.88 173.092 164.433 173.745 162.8C174.445 161.12 175.145 159.44 175.845 157.76C176.545 156.08 177.152 154.61 177.665 153.35C177.712 153.21 177.735 153.047 177.735 152.86C177.735 152.58 177.595 152.44 177.315 152.44C177.035 152.44 176.709 152.557 176.335 152.79C175.962 152.977 175.612 153.187 175.285 153.42C174.679 153.887 173.885 154.867 172.905 156.36C171.972 157.807 170.969 159.51 169.895 161.47C168.869 163.43 167.889 165.437 166.955 167.49C166.022 169.497 165.252 171.34 164.645 173.02C164.085 174.653 163.805 175.89 163.805 176.73C163.805 177.477 164.062 177.85 164.575 177.85ZM194.105 181.49C192.191 181.49 190.675 181.21 189.555 180.65C188.481 180.09 187.688 179.273 187.175 178.2C186.708 177.127 186.475 175.867 186.475 174.42C186.475 171.947 187.035 169.147 188.155 166.02C189.321 162.893 190.675 159.907 192.215 157.06C192.821 155.94 193.545 154.633 194.385 153.14C195.271 151.6 196.251 150.083 197.325 148.59C198.445 147.097 199.611 145.813 200.825 144.74C202.085 143.62 203.368 142.943 204.675 142.71C205.468 142.57 206.238 142.5 206.985 142.5C208.198 142.5 209.108 142.617 209.715 142.85C210.788 143.27 211.325 143.69 211.325 144.11C211.325 144.39 211.091 144.53 210.625 144.53C210.438 144.53 210.181 144.647 209.855 144.88C209.528 145.067 209.225 145.3 208.945 145.58C206.891 147.633 204.628 150.69 202.155 154.75C200.148 158.017 198.468 161.237 197.115 164.41C195.761 167.537 194.758 170.757 194.105 174.07C193.965 174.91 193.895 175.61 193.895 176.17C193.895 177.15 194.058 177.85 194.385 178.27C194.711 178.69 195.108 178.9 195.575 178.9C196.508 178.9 197.581 178.363 198.795 177.29C200.055 176.217 201.058 175.05 201.805 173.79C202.785 172.437 203.648 171.037 204.395 169.59C205.188 168.097 205.841 166.837 206.355 165.81C206.541 165.483 206.798 165.32 207.125 165.32C207.405 165.32 207.661 165.46 207.895 165.74C208.128 166.02 208.151 166.347 207.965 166.72C207.265 168.12 206.378 169.777 205.305 171.69C204.278 173.603 203.135 175.307 201.875 176.8C200.708 178.2 199.448 179.343 198.095 180.23C196.788 181.07 195.458 181.49 194.105 181.49ZM210.818 181.56C209.138 181.56 207.622 181.093 206.268 180.16C204.915 179.18 204.238 177.593 204.238 175.4C204.238 173.953 204.472 172.273 204.938 170.36C205.452 168.447 206.082 166.487 206.828 164.48C207.575 162.427 208.345 160.537 209.138 158.81C209.978 157.037 210.725 155.59 211.378 154.47C212.405 152.837 213.548 151.833 214.808 151.46C216.115 151.087 217.702 150.9 219.568 150.9C220.922 150.9 222.042 151.063 222.928 151.39C223.815 151.67 223.955 151.997 223.348 152.37C222.462 152.977 221.318 154.33 219.918 156.43C218.518 158.53 217.165 160.887 215.858 163.5C215.485 164.247 215.018 165.25 214.458 166.51C213.898 167.723 213.338 169.03 212.778 170.43C212.265 171.783 211.822 173.09 211.448 174.35C211.075 175.563 210.888 176.567 210.888 177.36C210.888 178.527 211.425 179.11 212.498 179.11C213.618 179.11 214.878 178.573 216.278 177.5C216.932 176.987 217.538 176.403 218.098 175.75C218.658 175.097 219.172 174.443 219.638 173.79C220.572 172.53 221.412 171.177 222.158 169.73C222.952 168.237 223.675 166.837 224.328 165.53C224.468 165.25 224.655 165.11 224.888 165.11C225.215 165.11 225.495 165.273 225.728 165.6C225.962 165.927 225.985 166.277 225.798 166.65C225.098 168.05 224.235 169.707 223.208 171.62C222.182 173.487 220.992 175.213 219.638 176.8C218.472 178.153 217.142 179.297 215.648 180.23C214.202 181.117 212.592 181.56 210.818 181.56ZM220.828 147.4C220.035 147.4 219.405 147.143 218.938 146.63C218.472 146.07 218.238 145.347 218.238 144.46C218.238 143.387 218.518 142.407 219.078 141.52C219.638 140.633 220.338 139.91 221.178 139.35C222.018 138.79 222.882 138.51 223.768 138.51C224.562 138.51 225.192 138.79 225.658 139.35C226.125 139.863 226.358 140.517 226.358 141.31C226.358 142.337 226.078 143.317 225.518 144.25C224.958 145.183 224.258 145.953 223.418 146.56C222.578 147.12 221.715 147.4 220.828 147.4ZM240.562 181.56C238.182 181.56 236.572 180.907 235.732 179.6C234.892 178.293 234.472 176.777 234.472 175.05C234.472 173.79 234.612 172.53 234.892 171.27C235.172 170.01 235.475 168.89 235.802 167.91C236.129 166.93 236.362 166.253 236.502 165.88C237.062 164.2 237.645 162.59 238.252 161.05C238.905 159.463 239.395 158.367 239.722 157.76C239.582 157.993 239.069 158.67 238.182 159.79C237.295 160.91 236.245 162.31 235.032 163.99C233.865 165.623 232.699 167.373 231.532 169.24C230.365 171.06 229.385 172.833 228.592 174.56C227.845 176.24 227.472 177.687 227.472 178.9C227.472 179.74 227.659 180.347 228.032 180.72C228.172 180.86 228.242 180.977 228.242 181.07C228.242 181.303 227.985 181.373 227.472 181.28C226.399 181.093 225.349 180.907 224.322 180.72C223.295 180.487 222.432 180.043 221.732 179.39C221.079 178.69 220.752 177.547 220.752 175.96C220.752 174.7 221.079 173.183 221.732 171.41C222.385 169.59 223.155 167.723 224.042 165.81C224.929 163.897 225.699 162.123 226.352 160.49C226.492 160.117 226.725 159.557 227.052 158.81C227.379 158.017 227.705 157.2 228.032 156.36C228.405 155.473 228.685 154.703 228.872 154.05C229.059 153.35 229.105 152.883 229.012 152.65C228.919 152.463 228.872 152.323 228.872 152.23C228.872 151.67 229.245 151.39 229.992 151.39C230.739 151.39 231.485 151.507 232.232 151.74C233.025 151.927 233.725 152.253 234.332 152.72C234.985 153.187 235.499 153.747 235.872 154.4C236.245 155.053 236.432 155.777 236.432 156.57C236.432 157.083 236.315 157.69 236.082 158.39C235.989 158.717 235.779 159.16 235.452 159.72C235.172 160.233 234.869 160.793 234.542 161.4C234.215 162.007 233.865 162.637 233.492 163.29C233.165 163.943 233.049 164.293 233.142 164.34C234.309 162.287 235.569 160.373 236.922 158.6C238.322 156.78 239.582 155.217 240.702 153.91C241.869 152.603 242.639 151.647 243.012 151.04C243.385 150.76 243.992 150.62 244.832 150.62C245.812 150.62 246.815 150.923 247.842 151.53C248.869 152.137 249.382 153.233 249.382 154.82C249.382 156.127 248.915 157.713 247.982 159.58C245.975 163.407 244.435 166.86 243.362 169.94C242.289 172.973 241.752 175.213 241.752 176.66C241.752 177.687 242.032 178.2 242.592 178.2C243.245 178.2 243.992 177.78 244.832 176.94C245.672 176.1 246.465 175.097 247.212 173.93C248.239 172.437 249.172 170.85 250.012 169.17C250.899 167.49 251.505 166.323 251.832 165.67C251.972 165.39 252.182 165.25 252.462 165.25C252.742 165.25 252.999 165.413 253.232 165.74C253.512 166.02 253.559 166.347 253.372 166.72C253.045 167.373 252.555 168.283 251.902 169.45C251.295 170.617 250.595 171.877 249.802 173.23C249.009 174.537 248.145 175.797 247.212 177.01C246.185 178.41 245.159 179.53 244.132 180.37C243.105 181.163 241.915 181.56 240.562 181.56ZM259.711 182.05C256.304 182.05 253.831 181.28 252.291 179.74C250.797 178.2 250.051 176.17 250.051 173.65C250.051 171.737 250.447 169.637 251.241 167.35C251.847 165.483 252.664 163.593 253.691 161.68C254.717 159.72 255.907 157.923 257.261 156.29C258.614 154.61 260.107 153.28 261.741 152.3C263.374 151.273 265.101 150.76 266.921 150.76C269.254 150.76 271.144 151.133 272.591 151.88C274.084 152.58 274.831 153.747 274.831 155.38C274.831 156.593 274.341 158.11 273.361 159.93C272.054 162.45 270.141 164.527 267.621 166.16C265.101 167.793 262.277 168.727 259.151 168.96C258.451 170.873 258.031 172.437 257.891 173.65C257.844 173.883 257.821 174.117 257.821 174.35C257.821 174.537 257.821 174.747 257.821 174.98C257.821 176.52 258.171 177.64 258.871 178.34C259.571 178.993 260.434 179.32 261.461 179.32C263.374 179.32 265.054 178.83 266.501 177.85C267.947 176.87 269.207 175.633 270.281 174.14C271.401 172.647 272.357 171.153 273.151 169.66C273.617 168.82 274.014 168.05 274.341 167.35C274.667 166.603 274.924 166.067 275.111 165.74C275.344 165.367 275.601 165.18 275.881 165.18C276.161 165.18 276.417 165.343 276.651 165.67C276.884 165.95 276.907 166.277 276.721 166.65C276.114 167.863 275.274 169.473 274.201 171.48C273.127 173.487 271.914 175.26 270.561 176.8C269.067 178.573 267.457 179.903 265.731 180.79C264.051 181.63 262.044 182.05 259.711 182.05ZM260.061 166.93C262.161 166.137 264.004 164.713 265.591 162.66C267.224 160.607 268.321 158.343 268.881 155.87C268.927 155.637 268.951 155.427 268.951 155.24C268.997 155.053 269.021 154.867 269.021 154.68C269.021 153.747 268.741 153.28 268.181 153.28C267.714 153.28 267.224 153.607 266.711 154.26C265.964 155.147 265.171 156.36 264.331 157.9C263.491 159.393 262.744 160.863 262.091 162.31C261.437 163.757 260.947 164.853 260.621 165.6L260.061 166.93Z" fill="white"/>
<path d="M109.722 192.8H111.042L107.266 198.928V204H106.146V198.928L102.378 192.8H103.698L106.706 197.704L109.722 192.8ZM114.722 204.208C113.986 204.208 113.314 204.019 112.706 203.64C112.104 203.261 111.621 202.755 111.258 202.12C110.901 201.48 110.722 200.773 110.722 200C110.722 199.413 110.826 198.867 111.034 198.36C111.242 197.848 111.528 197.4 111.89 197.016C112.258 196.627 112.685 196.323 113.17 196.104C113.656 195.885 114.173 195.776 114.722 195.776C115.458 195.776 116.128 195.965 116.73 196.344C117.338 196.723 117.821 197.232 118.178 197.872C118.541 198.512 118.722 199.221 118.722 200C118.722 200.581 118.618 201.125 118.41 201.632C118.202 202.139 117.914 202.587 117.546 202.976C117.184 203.36 116.76 203.661 116.274 203.88C115.794 204.099 115.277 204.208 114.722 204.208ZM114.722 203.088C115.266 203.088 115.754 202.947 116.186 202.664C116.624 202.376 116.968 201.997 117.218 201.528C117.474 201.059 117.602 200.549 117.602 200C117.602 199.44 117.474 198.925 117.218 198.456C116.962 197.981 116.616 197.603 116.178 197.32C115.746 197.037 115.261 196.896 114.722 196.896C114.178 196.896 113.688 197.04 113.25 197.328C112.818 197.611 112.474 197.987 112.218 198.456C111.968 198.925 111.842 199.44 111.842 200C111.842 200.576 111.973 201.099 112.234 201.568C112.496 202.032 112.845 202.403 113.282 202.68C113.72 202.952 114.2 203.088 114.722 203.088ZM119.679 200.936V196H120.799V200.712C120.799 201.149 120.906 201.547 121.119 201.904C121.332 202.261 121.618 202.547 121.975 202.76C122.338 202.973 122.735 203.08 123.167 203.08C123.604 203.08 123.999 202.973 124.351 202.76C124.708 202.547 124.994 202.261 125.207 201.904C125.42 201.547 125.527 201.149 125.527 200.712V196H126.647L126.655 204H125.535L125.527 202.88C125.244 203.285 124.876 203.608 124.423 203.848C123.975 204.088 123.484 204.208 122.951 204.208C122.348 204.208 121.799 204.061 121.303 203.768C120.807 203.475 120.412 203.08 120.119 202.584C119.826 202.088 119.679 201.539 119.679 200.936ZM128.249 204V196H129.369V197.104C129.652 196.699 130.02 196.376 130.473 196.136C130.926 195.896 131.42 195.776 131.953 195.776C132.262 195.776 132.561 195.816 132.849 195.896L132.393 197.008C132.169 196.939 131.95 196.904 131.737 196.904C131.305 196.904 130.908 197.011 130.545 197.224C130.188 197.437 129.902 197.723 129.689 198.08C129.476 198.437 129.369 198.835 129.369 199.272V204H128.249ZM144.388 196H145.508V204H144.388L144.348 202.512C144.086 203.019 143.721 203.429 143.252 203.744C142.782 204.053 142.222 204.208 141.572 204.208C140.985 204.208 140.436 204.099 139.924 203.88C139.412 203.656 138.961 203.349 138.572 202.96C138.182 202.571 137.878 202.12 137.66 201.608C137.441 201.096 137.332 200.547 137.332 199.96C137.332 199.384 137.438 198.843 137.652 198.336C137.87 197.829 138.169 197.384 138.548 197C138.932 196.616 139.374 196.317 139.876 196.104C140.382 195.885 140.924 195.776 141.5 195.776C142.166 195.776 142.748 195.936 143.244 196.256C143.74 196.571 144.134 196.984 144.428 197.496L144.388 196ZM141.548 203.12C142.118 203.12 142.609 202.981 143.02 202.704C143.43 202.421 143.745 202.043 143.964 201.568C144.188 201.093 144.3 200.571 144.3 200C144.3 199.413 144.188 198.885 143.964 198.416C143.74 197.941 143.422 197.565 143.012 197.288C142.601 197.011 142.113 196.872 141.548 196.872C140.982 196.872 140.465 197.013 139.996 197.296C139.532 197.573 139.161 197.949 138.884 198.424C138.612 198.899 138.476 199.424 138.476 200C138.476 200.581 138.617 201.109 138.9 201.584C139.182 202.053 139.556 202.427 140.02 202.704C140.489 202.981 140.998 203.12 141.548 203.12ZM147.108 204V196H148.228V197.104C148.511 196.699 148.879 196.376 149.332 196.136C149.786 195.896 150.279 195.776 150.812 195.776C151.122 195.776 151.42 195.816 151.708 195.896L151.252 197.008C151.028 196.939 150.81 196.904 150.596 196.904C150.164 196.904 149.767 197.011 149.404 197.224C149.047 197.437 148.762 197.723 148.548 198.08C148.335 198.437 148.228 198.835 148.228 199.272V204H147.108ZM156.915 197.12H155.003L154.995 204H153.875L153.883 197.12H152.435V196H153.883L153.875 193.488H154.995L155.003 196H156.915V197.12ZM158.28 196H159.4V204H158.28V196ZM158.848 194.6C158.667 194.6 158.512 194.541 158.384 194.424C158.262 194.301 158.2 194.149 158.2 193.968C158.2 193.787 158.262 193.637 158.384 193.52C158.512 193.397 158.667 193.336 158.848 193.336C159.024 193.336 159.174 193.397 159.296 193.52C159.424 193.637 159.488 193.787 159.488 193.968C159.488 194.149 159.427 194.301 159.304 194.424C159.182 194.541 159.03 194.6 158.848 194.6ZM163.737 204.152C163.299 204.141 162.873 204.061 162.457 203.912C162.041 203.763 161.678 203.56 161.369 203.304C161.059 203.048 160.838 202.757 160.705 202.432L161.673 202.016C161.758 202.224 161.915 202.416 162.145 202.592C162.379 202.763 162.646 202.901 162.945 203.008C163.243 203.109 163.539 203.16 163.833 203.16C164.158 203.16 164.462 203.107 164.745 203C165.027 202.893 165.257 202.741 165.433 202.544C165.614 202.341 165.705 202.104 165.705 201.832C165.705 201.539 165.609 201.309 165.417 201.144C165.225 200.973 164.982 200.84 164.689 200.744C164.395 200.643 164.094 200.547 163.785 200.456C163.219 200.301 162.721 200.131 162.289 199.944C161.857 199.757 161.518 199.52 161.273 199.232C161.033 198.939 160.913 198.563 160.913 198.104C160.913 197.619 161.049 197.2 161.321 196.848C161.598 196.491 161.958 196.216 162.401 196.024C162.849 195.827 163.326 195.728 163.833 195.728C164.483 195.728 165.075 195.869 165.609 196.152C166.147 196.435 166.537 196.811 166.777 197.28L165.873 197.816C165.777 197.597 165.625 197.408 165.417 197.248C165.209 197.088 164.971 196.963 164.705 196.872C164.443 196.781 164.177 196.733 163.905 196.728C163.563 196.723 163.246 196.773 162.953 196.88C162.659 196.981 162.422 197.133 162.241 197.336C162.065 197.539 161.977 197.787 161.977 198.08C161.977 198.373 162.065 198.597 162.241 198.752C162.417 198.901 162.654 199.024 162.953 199.12C163.257 199.211 163.598 199.317 163.977 199.44C164.462 199.595 164.918 199.771 165.345 199.968C165.771 200.165 166.115 200.411 166.377 200.704C166.638 200.997 166.766 201.368 166.761 201.816C166.761 202.296 166.617 202.715 166.329 203.072C166.041 203.429 165.667 203.704 165.209 203.896C164.75 204.083 164.259 204.168 163.737 204.152ZM174.653 196H175.773V204H174.653L174.613 202.512C174.352 203.019 173.987 203.429 173.517 203.744C173.048 204.053 172.488 204.208 171.837 204.208C171.251 204.208 170.701 204.099 170.189 203.88C169.677 203.656 169.227 203.349 168.837 202.96C168.448 202.571 168.144 202.12 167.925 201.608C167.707 201.096 167.597 200.547 167.597 199.96C167.597 199.384 167.704 198.843 167.917 198.336C168.136 197.829 168.435 197.384 168.813 197C169.197 196.616 169.64 196.317 170.141 196.104C170.648 195.885 171.189 195.776 171.765 195.776C172.432 195.776 173.013 195.936 173.509 196.256C174.005 196.571 174.4 196.984 174.693 197.496L174.653 196ZM171.813 203.12C172.384 203.12 172.875 202.981 173.285 202.704C173.696 202.421 174.011 202.043 174.229 201.568C174.453 201.093 174.565 200.571 174.565 200C174.565 199.413 174.453 198.885 174.229 198.416C174.005 197.941 173.688 197.565 173.277 197.288C172.867 197.011 172.379 196.872 171.813 196.872C171.248 196.872 170.731 197.013 170.261 197.296C169.797 197.573 169.427 197.949 169.149 198.424C168.877 198.899 168.741 199.424 168.741 200C168.741 200.581 168.883 201.109 169.165 201.584C169.448 202.053 169.821 202.427 170.285 202.704C170.755 202.981 171.264 203.12 171.813 203.12ZM184.35 199.048V204H183.23V199.272C183.23 198.835 183.123 198.437 182.91 198.08C182.697 197.723 182.411 197.437 182.054 197.224C181.697 197.011 181.299 196.904 180.862 196.904C180.43 196.904 180.033 197.011 179.67 197.224C179.313 197.437 179.027 197.723 178.814 198.08C178.601 198.437 178.494 198.835 178.494 199.272V204H177.374V196H178.494V197.104C178.777 196.699 179.145 196.376 179.598 196.136C180.051 195.896 180.545 195.776 181.078 195.776C181.681 195.776 182.23 195.923 182.726 196.216C183.222 196.509 183.617 196.904 183.91 197.4C184.203 197.896 184.35 198.445 184.35 199.048ZM191.452 193.912V196H193.852V197.12H191.452V204H190.332V197.12H189.236V196H190.332V193.912C190.332 193.523 190.425 193.171 190.612 192.856C190.804 192.536 191.06 192.283 191.38 192.096C191.7 191.904 192.055 191.808 192.444 191.808C192.727 191.808 192.999 191.864 193.26 191.976C193.527 192.088 193.764 192.253 193.972 192.472L193.172 193.264C193.087 193.157 192.977 193.075 192.844 193.016C192.716 192.957 192.583 192.928 192.444 192.928C192.172 192.928 191.937 193.024 191.74 193.216C191.548 193.408 191.452 193.64 191.452 193.912ZM195.218 204V192H196.338V204H195.218ZM201.722 204.208C200.986 204.208 200.314 204.019 199.706 203.64C199.104 203.261 198.621 202.755 198.258 202.12C197.901 201.48 197.722 200.773 197.722 200C197.722 199.413 197.826 198.867 198.034 198.36C198.242 197.848 198.528 197.4 198.89 197.016C199.258 196.627 199.685 196.323 200.17 196.104C200.656 195.885 201.173 195.776 201.722 195.776C202.458 195.776 203.128 195.965 203.73 196.344C204.338 196.723 204.821 197.232 205.178 197.872C205.541 198.512 205.722 199.221 205.722 200C205.722 200.581 205.618 201.125 205.41 201.632C205.202 202.139 204.914 202.587 204.546 202.976C204.184 203.36 203.76 203.661 203.274 203.88C202.794 204.099 202.277 204.208 201.722 204.208ZM201.722 203.088C202.266 203.088 202.754 202.947 203.186 202.664C203.624 202.376 203.968 201.997 204.218 201.528C204.474 201.059 204.602 200.549 204.602 200C204.602 199.44 204.474 198.925 204.218 198.456C203.962 197.981 203.616 197.603 203.178 197.32C202.746 197.037 202.261 196.896 201.722 196.896C201.178 196.896 200.688 197.04 200.25 197.328C199.818 197.611 199.474 197.987 199.218 198.456C198.968 198.925 198.842 199.44 198.842 200C198.842 200.576 198.973 201.099 199.234 201.568C199.496 202.032 199.845 202.403 200.282 202.68C200.72 202.952 201.2 203.088 201.722 203.088ZM207.077 204V196H208.197V197.104C208.48 196.699 208.848 196.376 209.301 196.136C209.755 195.896 210.248 195.776 210.781 195.776C211.091 195.776 211.389 195.816 211.677 195.896L211.221 197.008C210.997 196.939 210.779 196.904 210.565 196.904C210.133 196.904 209.736 197.011 209.373 197.224C209.016 197.437 208.731 197.723 208.517 198.08C208.304 198.437 208.197 198.835 208.197 199.272V204H207.077ZM212.687 196H213.807V204H212.687V196ZM213.255 194.6C213.073 194.6 212.919 194.541 212.791 194.424C212.668 194.301 212.607 194.149 212.607 193.968C212.607 193.787 212.668 193.637 212.791 193.52C212.919 193.397 213.073 193.336 213.255 193.336C213.431 193.336 213.58 193.397 213.703 193.52C213.831 193.637 213.895 193.787 213.895 193.968C213.895 194.149 213.833 194.301 213.711 194.424C213.588 194.541 213.436 194.6 213.255 194.6ZM218.143 204.152C217.706 204.141 217.279 204.061 216.863 203.912C216.447 203.763 216.084 203.56 215.775 203.304C215.466 203.048 215.244 202.757 215.111 202.432L216.079 202.016C216.164 202.224 216.322 202.416 216.551 202.592C216.786 202.763 217.052 202.901 217.351 203.008C217.65 203.109 217.946 203.16 218.239 203.16C218.564 203.16 218.868 203.107 219.151 203C219.434 202.893 219.663 202.741 219.839 202.544C220.02 202.341 220.111 202.104 220.111 201.832C220.111 201.539 220.015 201.309 219.823 201.144C219.631 200.973 219.388 200.84 219.095 200.744C218.802 200.643 218.5 200.547 218.191 200.456C217.626 200.301 217.127 200.131 216.695 199.944C216.263 199.757 215.924 199.52 215.679 199.232C215.439 198.939 215.319 198.563 215.319 198.104C215.319 197.619 215.455 197.2 215.727 196.848C216.004 196.491 216.364 196.216 216.807 196.024C217.255 195.827 217.732 195.728 218.239 195.728C218.89 195.728 219.482 195.869 220.015 196.152C220.554 196.435 220.943 196.811 221.183 197.28L220.279 197.816C220.183 197.597 220.031 197.408 219.823 197.248C219.615 197.088 219.378 196.963 219.111 196.872C218.85 196.781 218.583 196.733 218.311 196.728C217.97 196.723 217.652 196.773 217.359 196.88C217.066 196.981 216.828 197.133 216.647 197.336C216.471 197.539 216.383 197.787 216.383 198.08C216.383 198.373 216.471 198.597 216.647 198.752C216.823 198.901 217.06 199.024 217.359 199.12C217.663 199.211 218.004 199.317 218.383 199.44C218.868 199.595 219.324 199.771 219.751 199.968C220.178 200.165 220.522 200.411 220.783 200.704C221.044 200.997 221.172 201.368 221.167 201.816C221.167 202.296 221.023 202.715 220.735 203.072C220.447 203.429 220.074 203.704 219.615 203.896C219.156 204.083 218.666 204.168 218.143 204.152ZM226.634 197.12H224.722L224.714 204H223.594L223.602 197.12H222.154V196H223.602L223.594 193.488H224.714L224.722 196H226.634V197.12Z" fill="white"/>
<defs>
<filter id="filter0_d_352_4142" x="0.284279" y="8.28428" width="329.351" height="329.351" filterUnits="userSpaceOnUse" color-interpolation-filters="sRGB">
<feFlood flood-opacity="0" result="BackgroundImageFix"/>
<feColorMatrix in="SourceAlpha" type="matrix" values="0 0 0 0 0 0 0 0 0 0 0 0 0 0 0 0 0 0 127 0" result="hardAlpha"/>
<feOffset dy="8"/>
<feGaussianBlur stdDeviation="4"/>
<feComposite in2="hardAlpha" operator="out"/>
<feColorMatrix type="matrix" values="0 0 0 0 0 0 0 0 0 0 0 0 0 0 0 0 0 0 0.5 0"/>
<feBlend mode="normal" in2="BackgroundImageFix" result="effect1_dropShadow_352_4142"/>
<feBlend mode="normal" in="SourceGraphic" in2="effect1_dropShadow_352_4142" result="shape"/>
</filter>
</defs>
</svg>
