<svg width="32" height="32" viewBox="0 0 32 32" fill="none" xmlns="http://www.w3.org/2000/svg">
<circle cx="16" cy="16" r="16" fill="#284B30"/>
<path d="M9.25979 17.0919L18.5944 25.7742C18.7502 25.9191 18.9571 26 19.1723 26C19.3875 26 19.5944 25.9191 19.7501 25.7742L19.7602 25.7644C19.836 25.6941 19.8963 25.6096 19.9375 25.5158C19.9787 25.4221 20 25.3211 20 25.2191C20 25.1171 19.9787 25.0161 19.9375 24.9224C19.8963 24.8286 19.836 24.7441 19.7602 24.6738L10.9699 16.4984L19.7602 8.32621C19.836 8.25595 19.8963 8.17137 19.9375 8.07763C19.9787 7.98388 20 7.88293 20 7.78091C20 7.67889 19.9787 7.57794 19.9375 7.4842C19.8963 7.39045 19.836 7.30588 19.7602 7.23561L19.7501 7.2258C19.5944 7.08086 19.3875 7 19.1723 7C18.9571 7 18.7502 7.08086 18.5944 7.2258L9.25979 15.9081C9.17769 15.9845 9.11234 16.0763 9.06768 16.178C9.02303 16.2798 9 16.3893 9 16.5C9 16.6107 9.02303 16.7202 9.06768 16.822C9.11234 16.9237 9.17769 17.0155 9.25979 17.0919Z" fill="white"/>
</svg>
