<svg width="37" height="39" viewBox="0 0 37 39" fill="none" xmlns="http://www.w3.org/2000/svg">
<path d="M4.18671 2.32312C2.19834 2.32312 0.586548 3.94319 0.586548 5.92328V34.7246C0.586548 36.7047 2.19834 38.3247 4.18671 38.3247H32.988C34.9771 38.3247 36.5882 36.7047 36.5882 34.7246V5.92328C36.5882 3.94319 34.9771 2.32312 32.988 2.32312H4.18671Z" fill="#30497B"/>
<path d="M4.18671 0.522827C2.19834 0.522827 0.586548 2.13462 0.586548 4.12299V32.9243C0.586548 34.9134 2.19834 36.5245 4.18671 36.5245H32.988C34.9771 36.5245 36.5882 34.9134 36.5882 32.9243V4.12299C36.5882 2.13462 34.9771 0.522827 32.988 0.522827H4.18671Z" fill="#3B5998"/>
<path d="M27.5878 7.72351C23.6115 7.72351 20.3875 10.9637 20.3875 14.9238V20.3241H16.7874V25.7243H20.3875V38.3249H25.7878V25.7243H30.2052L31.188 20.3241H25.7878V14.9238C25.7878 13.8438 26.5942 13.1238 27.5878 13.1238H31.188V7.72351H27.5878Z" fill="#30497B"/>
<path d="M27.5878 5.9234C23.6115 5.9234 20.3875 9.14717 20.3875 13.1237V18.524H16.7874V23.9242H20.3875V36.5248H25.7878V23.9242H30.2052L31.188 18.524H25.7878V13.1237C25.7878 12.1295 26.5942 11.3236 27.5878 11.3236H31.188V5.9234H27.5878Z" fill="#ECF0F1"/>
<path d="M20.3876 36.5249H25.7878V38.325H20.3876V36.5249Z" fill="#BDC3C7"/>
</svg>
