<svg width="39" height="39" viewBox="0 0 39 39" fill="none" xmlns="http://www.w3.org/2000/svg">
<path d="M38.2138 15.4095H36.6702V15.33H19.424V22.9949H30.2537C28.6737 27.4569 24.4283 30.6599 19.424 30.6599C13.0746 30.6599 7.92657 25.5119 7.92657 19.1624C7.92657 12.813 13.0746 7.66498 19.424 7.66498C22.3549 7.66498 25.0214 8.77065 27.0516 10.5767L32.4717 5.15661C29.0493 1.96702 24.4714 0 19.424 0C8.84158 0 0.261597 8.57998 0.261597 19.1624C0.261597 29.7449 8.84158 38.3249 19.424 38.3249C30.0065 38.3249 38.5865 29.7449 38.5865 19.1624C38.5865 17.8776 38.4543 16.6234 38.2138 15.4095Z" fill="#FFC107"/>
<path d="M2.47107 10.2433L8.76689 14.8605C10.4704 10.6428 14.5961 7.66498 19.4241 7.66498C22.355 7.66498 25.0214 8.77065 27.0517 10.5767L32.4718 5.15661C29.0494 1.96702 24.4715 0 19.4241 0C12.0638 0 5.68078 4.15538 2.47107 10.2433Z" fill="#FF3D00"/>
<path d="M19.4239 38.325C24.3735 38.325 28.871 36.4308 32.2713 33.3504L26.3405 28.3318C24.4166 29.7891 22.0252 30.66 19.4239 30.66C14.4397 30.66 10.2077 27.4819 8.61337 23.0468L2.3645 27.8613C5.53589 34.0671 11.9764 38.325 19.4239 38.325Z" fill="#4CAF50"/>
<path d="M38.2138 15.4096H36.6703V15.3301H19.4241V22.9951H30.2537C29.4949 25.1384 28.1162 26.9866 26.3379 28.3328C26.3388 28.3318 26.3398 28.3318 26.3408 28.3308L32.2715 33.3495C31.8519 33.7308 38.5865 28.7438 38.5865 19.1626C38.5865 17.8777 38.4543 16.6235 38.2138 15.4096Z" fill="#1976D2"/>
</svg>
