<svg width="32" height="38" viewBox="0 0 32 38" fill="none" xmlns="http://www.w3.org/2000/svg">
<path d="M26.6321 19.8449C26.6156 16.8077 27.9894 14.5153 30.77 12.827C29.2142 10.6008 26.8638 9.37599 23.7604 9.13599C20.8225 8.90427 17.6115 10.8491 16.4363 10.8491C15.1949 10.8491 12.3481 9.21875 10.1136 9.21875C5.49569 9.29323 0.588135 12.9015 0.588135 20.2421C0.588135 22.4104 0.985374 24.6504 1.77985 26.9621C2.83916 29.9993 6.66258 37.4475 10.6515 37.3234C12.737 37.2738 14.2101 35.842 16.9246 35.842C19.5563 35.842 20.9218 37.3234 23.2473 37.3234C27.2694 37.2655 30.7286 30.4959 31.7383 27.4504C26.3425 24.9097 26.6321 20.0021 26.6321 19.8449ZM21.948 6.25601C24.2073 3.57464 24.0004 1.13328 23.9342 0.256042C21.9397 0.371904 19.6308 1.61328 18.3149 3.1443C16.8667 4.78291 16.0143 6.81049 16.1963 9.09461C18.3563 9.26013 20.3259 8.15117 21.948 6.25601Z" fill="black"/>
</svg>
