<svg width="233" height="223" viewBox="0 0 233 223" fill="none" xmlns="http://www.w3.org/2000/svg">
<g filter="url(#filter0_d_352_4232)">
<rect x="9" y="107.36" width="151.83" height="151.83" rx="20" transform="rotate(-45 9 107.36)" fill="#284B30"/>
</g>
<path d="M66.1745 117.28C64.8679 117.28 63.8945 117.053 63.2545 116.6C62.6412 116.12 62.3345 115.373 62.3345 114.36C62.3345 114.2 62.3345 114.04 62.3345 113.88C62.3612 113.72 62.3879 113.56 62.4145 113.4C62.4945 112.787 62.6812 111.987 62.9745 111C63.2679 109.987 63.6545 108.867 64.1345 107.64C63.6012 107.613 63.0545 107.587 62.4945 107.56C61.9345 107.507 61.4812 107.44 61.1345 107.36C60.7879 107.28 60.6279 107.187 60.6545 107.08C61.0545 105.907 61.4812 105.093 61.9345 104.64C62.3879 104.16 62.9479 103.92 63.6145 103.92C64.0145 103.92 64.4279 103.973 64.8545 104.08C64.9612 104.107 65.0679 104.133 65.1745 104.16C65.2812 104.187 65.4012 104.213 65.5345 104.24C65.9879 103.28 66.4545 102.32 66.9345 101.36C67.4412 100.4 67.9745 99.48 68.5345 98.6C68.6412 98.4667 68.8279 98.1733 69.0945 97.72C69.3612 97.2667 69.6145 96.7867 69.8545 96.28C70.1212 95.7733 70.2545 95.3867 70.2545 95.12C70.2545 94.8533 70.0812 94.7733 69.7345 94.88C69.2812 95.04 68.7479 95.3867 68.1345 95.92C67.5212 96.4533 66.8545 97.0667 66.1345 97.76C65.4145 98.4533 64.6545 99.1333 63.8545 99.8C63.0812 100.44 62.2812 100.987 61.4545 101.44C60.6545 101.867 59.8679 102.08 59.0945 102.08C58.9079 102.08 58.7079 102.067 58.4945 102.04C58.3079 102.013 58.1079 101.96 57.8945 101.88C57.4412 101.72 57.2145 101.32 57.2145 100.68C57.2145 100.067 57.3879 99.3467 57.7345 98.52C58.1079 97.6667 58.5612 96.8533 59.0945 96.08C59.2279 95.92 59.4679 95.84 59.8145 95.84C60.1612 95.84 60.2945 95.92 60.2145 96.08C60.0812 96.32 60.0145 96.5067 60.0145 96.64C60.0145 96.72 60.0412 96.76 60.0945 96.76C60.1745 96.76 60.2279 96.7867 60.2545 96.84C60.4679 96.9733 60.7079 97.04 60.9745 97.04C61.5345 97.04 62.2545 96.8533 63.1345 96.48C64.0412 96.1067 65.0145 95.6533 66.0545 95.12C67.1212 94.56 68.1745 94.0133 69.2145 93.48C70.2812 92.9467 71.2679 92.5333 72.1745 92.24C73.0812 91.92 73.8279 91.8133 74.4145 91.92C74.8679 92.0267 75.2679 92.3467 75.6145 92.88C75.9879 93.4133 76.2279 93.88 76.3345 94.28C76.4145 94.52 76.4545 94.7733 76.4545 95.04C76.4545 95.28 76.4012 95.5333 76.2945 95.8C76.2145 96.04 76.0679 96.3067 75.8545 96.6C74.7612 98.04 73.7345 99.4667 72.7745 100.88C71.8145 102.267 70.9479 103.627 70.1745 104.96C70.3345 104.987 70.4812 105.013 70.6145 105.04C70.7479 105.04 70.8412 105.027 70.8945 105C71.5879 104.973 72.0412 104.92 72.2545 104.84C72.4945 104.76 72.6279 104.707 72.6545 104.68C71.9079 106.2 70.6145 107.16 68.7745 107.56C67.9212 109.187 67.2545 110.693 66.7745 112.08C66.2945 113.44 66.0545 114.573 66.0545 115.48C66.0545 116.147 66.2012 116.653 66.4945 117C66.5479 117.107 66.5745 117.16 66.5745 117.16C66.5745 117.24 66.4412 117.28 66.1745 117.28ZM77.3233 117.28C76.2299 117.28 75.3633 117.12 74.7233 116.8C74.1099 116.48 73.6566 116.013 73.3633 115.4C73.0966 114.787 72.9633 114.067 72.9633 113.24C72.9633 111.827 73.2833 110.227 73.9233 108.44C74.5899 106.653 75.3633 104.947 76.2433 103.32C76.5899 102.68 77.0033 101.933 77.4833 101.08C77.9899 100.2 78.5499 99.3333 79.1633 98.48C79.8033 97.6267 80.4699 96.8933 81.1633 96.28C81.8833 95.64 82.6166 95.2533 83.3633 95.12C83.8166 95.04 84.2566 95 84.6833 95C85.3766 95 85.8966 95.0667 86.2433 95.2C86.8566 95.44 87.1633 95.68 87.1633 95.92C87.1633 96.08 87.0299 96.16 86.7633 96.16C86.6566 96.16 86.5099 96.2267 86.3233 96.36C86.1366 96.4667 85.9633 96.6 85.8033 96.76C84.6299 97.9333 83.3366 99.68 81.9233 102C80.7766 103.867 79.8166 105.707 79.0433 107.52C78.2699 109.307 77.6966 111.147 77.3233 113.04C77.2433 113.52 77.2033 113.92 77.2033 114.24C77.2033 114.8 77.2966 115.2 77.4833 115.44C77.6699 115.68 77.8966 115.8 78.1633 115.8C78.6966 115.8 79.3099 115.493 80.0033 114.88C80.7233 114.267 81.2966 113.6 81.7233 112.88C82.2833 112.107 82.7766 111.307 83.2033 110.48C83.6566 109.627 84.0299 108.907 84.3233 108.32C84.4299 108.133 84.5766 108.04 84.7633 108.04C84.9233 108.04 85.0699 108.12 85.2033 108.28C85.3366 108.44 85.3499 108.627 85.2433 108.84C84.8433 109.64 84.3366 110.587 83.7233 111.68C83.1366 112.773 82.4833 113.747 81.7633 114.6C81.0966 115.4 80.3766 116.053 79.6033 116.56C78.8566 117.04 78.0966 117.28 77.3233 117.28ZM88.7939 117.28C87.0872 117.28 85.7539 117 84.7939 116.44C83.8339 115.88 83.3539 114.8 83.3539 113.2C83.3539 112.08 83.5272 110.907 83.8739 109.68C84.2472 108.427 84.7672 107.213 85.4339 106.04C86.1006 104.867 86.8872 103.8 87.7939 102.84C88.7006 101.88 89.7006 101.12 90.7939 100.56C91.8872 99.9733 93.0472 99.68 94.2739 99.68C95.0739 99.68 95.8339 99.7467 96.5539 99.88C97.2739 100.013 97.8606 100.32 98.3139 100.8C98.7672 101.253 98.9939 101.973 98.9939 102.96C98.9939 104 98.7139 105.347 98.1539 107C97.5939 108.653 96.8339 110.267 95.8739 111.84C95.8206 112.053 95.7939 112.267 95.7939 112.48C95.7939 112.773 95.8472 113.067 95.9539 113.36C96.0872 113.653 96.3139 113.8 96.6339 113.8C97.0606 113.8 97.5006 113.507 97.9539 112.92C98.4339 112.253 98.9272 111.453 99.4339 110.52C99.9406 109.587 100.327 108.827 100.594 108.24C100.647 108.08 100.767 108 100.954 108C101.141 108 101.301 108.08 101.434 108.24C101.594 108.4 101.607 108.587 101.474 108.8C101.261 109.2 100.981 109.76 100.634 110.48C100.287 111.173 99.8872 111.88 99.4339 112.6C98.9806 113.32 98.4872 113.893 97.9539 114.32C97.5539 114.64 97.1272 114.8 96.6739 114.8C96.1406 114.8 95.7406 114.68 95.4739 114.44C95.2072 114.173 94.9939 113.8 94.8339 113.32C93.9806 114.467 93.0339 115.413 91.9939 116.16C90.9539 116.907 89.8872 117.28 88.7939 117.28ZM88.0339 116.04C88.3272 116.04 88.7272 115.653 89.2339 114.88C89.7406 114.107 90.2872 113.12 90.8739 111.92C91.4606 110.693 92.0339 109.453 92.5939 108.2C92.7006 107.987 92.8739 107.6 93.1139 107.04C93.3539 106.453 93.6072 105.813 93.8739 105.12C94.1406 104.4 94.3672 103.707 94.5539 103.04C94.7406 102.373 94.8339 101.84 94.8339 101.44C94.8339 100.987 94.7006 100.76 94.4339 100.76C94.1939 100.76 93.8872 101 93.5139 101.48C93.1406 101.933 92.7272 102.533 92.2739 103.28C91.8206 104.027 91.3806 104.827 90.9539 105.68C90.5272 106.533 90.1539 107.333 89.8339 108.08C89.5139 108.827 89.1806 109.667 88.8339 110.6C88.4872 111.533 88.1939 112.427 87.9539 113.28C87.7406 114.107 87.6339 114.773 87.6339 115.28C87.6339 115.787 87.7672 116.04 88.0339 116.04ZM106.485 117.32C105.152 117.32 104.205 116.947 103.645 116.2C103.112 115.427 102.845 114.547 102.845 113.56C102.845 112.68 103.032 111.707 103.405 110.64C103.778 109.547 104.232 108.453 104.765 107.36C105.325 106.24 105.898 105.173 106.485 104.16C107.072 103.147 107.578 102.24 108.005 101.44C107.738 101.493 107.458 101.547 107.165 101.6C106.898 101.627 106.632 101.64 106.365 101.64C105.752 101.64 105.218 101.547 104.765 101.36C104.738 101.467 104.698 101.573 104.645 101.68C104.592 101.787 104.552 101.867 104.525 101.92C103.938 103.467 103.312 104.973 102.645 106.44C101.978 107.907 101.378 109.107 100.845 110.04C100.498 110.653 100.192 110.96 99.9248 110.96C99.7115 110.96 99.6048 110.8 99.6048 110.48C99.6048 110.267 99.6582 110.067 99.7648 109.88C100.298 108.867 100.912 107.587 101.605 106.04C102.325 104.493 102.978 102.92 103.565 101.32C103.592 101.267 103.618 101.173 103.645 101.04C103.698 100.88 103.738 100.747 103.765 100.64C103.418 100.213 103.245 99.6533 103.245 98.96C103.245 98.5067 103.365 98.0667 103.605 97.64C103.845 97.1867 104.218 96.96 104.725 96.96C105.018 96.96 105.285 97.0667 105.525 97.28C105.792 97.4933 105.925 97.8267 105.925 98.28C105.925 98.8133 105.738 99.4 105.365 100.04C105.418 100.227 105.592 100.373 105.885 100.48C106.178 100.56 106.498 100.6 106.845 100.6C107.218 100.6 107.578 100.547 107.925 100.44C108.298 100.333 108.552 100.173 108.685 99.96C108.925 99.64 109.325 99.48 109.885 99.48C110.365 99.48 110.898 99.6133 111.485 99.88C111.805 100.04 112.072 100.28 112.285 100.6C112.498 100.893 112.605 101.267 112.605 101.72C112.605 102.52 112.258 103.533 111.565 104.76C110.818 106.147 110.045 107.64 109.245 109.24C108.472 110.84 107.898 112.28 107.525 113.56C107.418 113.907 107.365 114.24 107.365 114.56C107.365 115.12 107.538 115.4 107.885 115.4C108.258 115.4 108.672 115.16 109.125 114.68C109.605 114.2 110.072 113.627 110.525 112.96C111.112 112.107 111.645 111.2 112.125 110.24C112.632 109.28 112.978 108.613 113.165 108.24C113.245 108.08 113.365 108 113.525 108C113.685 108 113.832 108.093 113.965 108.28C114.125 108.44 114.152 108.627 114.045 108.84C113.698 109.56 113.218 110.493 112.605 111.64C111.992 112.76 111.298 113.813 110.525 114.8C109.965 115.52 109.352 116.12 108.685 116.6C108.018 117.08 107.285 117.32 106.485 117.32ZM115.063 117.24C113.756 117.24 112.836 116.947 112.303 116.36C111.796 115.747 111.543 114.987 111.543 114.08C111.543 113.12 111.716 112.093 112.063 111C112.436 109.88 112.85 108.853 113.303 107.92C113.783 106.96 114.156 106.227 114.423 105.72C115.516 103.693 116.77 102.213 118.183 101.28C119.623 100.347 121.21 99.88 122.943 99.88C123.556 99.88 124.276 99.9067 125.103 99.96C125.93 100.013 126.77 100.04 127.623 100.04C128.05 100.04 128.463 100.027 128.863 100C129.263 99.9733 129.65 99.96 130.023 99.96H130.183C130.636 99.96 130.863 100.04 130.863 100.2C130.863 100.307 130.703 100.427 130.383 100.56C130.036 100.693 129.623 101.147 129.143 101.92C128.663 102.667 128.17 103.573 127.663 104.64C127.156 105.707 126.676 106.787 126.223 107.88C125.983 108.493 125.663 109.32 125.263 110.36C124.863 111.373 124.57 112.413 124.383 113.48C124.356 113.667 124.33 113.84 124.303 114C124.303 114.133 124.303 114.267 124.303 114.4C124.303 115.067 124.476 115.4 124.823 115.4C125.25 115.4 125.69 115.173 126.143 114.72C126.596 114.267 127.036 113.72 127.463 113.08C127.836 112.52 128.21 111.893 128.583 111.2C128.956 110.507 129.29 109.867 129.583 109.28C129.876 108.667 130.09 108.24 130.223 108C130.303 107.84 130.41 107.76 130.543 107.76C130.703 107.76 130.85 107.88 130.983 108.12C131.116 108.333 131.13 108.547 131.023 108.76C130.516 109.747 129.97 110.8 129.383 111.92C128.796 113.04 128.156 114.053 127.463 114.96C126.29 116.48 124.93 117.24 123.383 117.24C122.21 117.24 121.343 116.88 120.783 116.16C120.25 115.44 119.983 114.573 119.983 113.56C119.983 113.107 120.023 112.667 120.103 112.24C119.81 112.72 119.45 113.347 119.023 114.12C118.596 114.867 118.103 115.547 117.543 116.16C117.01 116.773 116.41 117.12 115.743 117.2C115.636 117.2 115.53 117.2 115.423 117.2C115.316 117.227 115.196 117.24 115.063 117.24ZM116.543 115.2C116.81 115.2 117.156 114.96 117.583 114.48C118.036 114 118.49 113.4 118.943 112.68C119.423 111.933 119.836 111.187 120.183 110.44C120.263 110.227 120.45 109.773 120.743 109.08C121.063 108.36 121.41 107.533 121.783 106.6C122.183 105.64 122.583 104.68 122.983 103.72C123.383 102.76 123.73 101.92 124.023 101.2C124.05 101.12 124.063 101.027 124.063 100.92C124.063 100.76 123.983 100.68 123.823 100.68C123.663 100.68 123.476 100.747 123.263 100.88C123.05 100.987 122.85 101.107 122.663 101.24C122.316 101.507 121.863 102.067 121.303 102.92C120.77 103.747 120.196 104.72 119.583 105.84C118.996 106.96 118.436 108.107 117.903 109.28C117.37 110.427 116.93 111.48 116.583 112.44C116.263 113.373 116.103 114.08 116.103 114.56C116.103 114.987 116.25 115.2 116.543 115.2ZM133.417 117.28C132.324 117.28 131.457 117.12 130.817 116.8C130.204 116.48 129.75 116.013 129.457 115.4C129.19 114.787 129.057 114.067 129.057 113.24C129.057 111.827 129.377 110.227 130.017 108.44C130.684 106.653 131.457 104.947 132.337 103.32C132.684 102.68 133.097 101.933 133.577 101.08C134.084 100.2 134.644 99.3333 135.257 98.48C135.897 97.6267 136.564 96.8933 137.257 96.28C137.977 95.64 138.71 95.2533 139.457 95.12C139.91 95.04 140.35 95 140.777 95C141.47 95 141.99 95.0667 142.337 95.2C142.95 95.44 143.257 95.68 143.257 95.92C143.257 96.08 143.124 96.16 142.857 96.16C142.75 96.16 142.604 96.2267 142.417 96.36C142.23 96.4667 142.057 96.6 141.897 96.76C140.724 97.9333 139.43 99.68 138.017 102C136.87 103.867 135.91 105.707 135.137 107.52C134.364 109.307 133.79 111.147 133.417 113.04C133.337 113.52 133.297 113.92 133.297 114.24C133.297 114.8 133.39 115.2 133.577 115.44C133.764 115.68 133.99 115.8 134.257 115.8C134.79 115.8 135.404 115.493 136.097 114.88C136.817 114.267 137.39 113.6 137.817 112.88C138.377 112.107 138.87 111.307 139.297 110.48C139.75 109.627 140.124 108.907 140.417 108.32C140.524 108.133 140.67 108.04 140.857 108.04C141.017 108.04 141.164 108.12 141.297 108.28C141.43 108.44 141.444 108.627 141.337 108.84C140.937 109.64 140.43 110.587 139.817 111.68C139.23 112.773 138.577 113.747 137.857 114.6C137.19 115.4 136.47 116.053 135.697 116.56C134.95 117.04 134.19 117.28 133.417 117.28ZM142.968 117.32C142.008 117.32 141.141 117.053 140.368 116.52C139.594 115.96 139.208 115.053 139.208 113.8C139.208 112.973 139.341 112.013 139.608 110.92C139.901 109.827 140.261 108.707 140.688 107.56C141.114 106.387 141.554 105.307 142.008 104.32C142.488 103.307 142.914 102.48 143.288 101.84C143.874 100.907 144.528 100.333 145.248 100.12C145.994 99.9067 146.901 99.8 147.968 99.8C148.741 99.8 149.381 99.8933 149.888 100.08C150.394 100.24 150.474 100.427 150.128 100.64C149.621 100.987 148.968 101.76 148.168 102.96C147.368 104.16 146.594 105.507 145.848 107C145.634 107.427 145.368 108 145.048 108.72C144.728 109.413 144.408 110.16 144.088 110.96C143.794 111.733 143.541 112.48 143.328 113.2C143.114 113.893 143.008 114.467 143.008 114.92C143.008 115.587 143.314 115.92 143.928 115.92C144.568 115.92 145.288 115.613 146.088 115C146.461 114.707 146.808 114.373 147.128 114C147.448 113.627 147.741 113.253 148.008 112.88C148.541 112.16 149.021 111.387 149.448 110.56C149.901 109.707 150.314 108.907 150.688 108.16C150.768 108 150.874 107.92 151.008 107.92C151.194 107.92 151.354 108.013 151.488 108.2C151.621 108.387 151.634 108.587 151.528 108.8C151.128 109.6 150.634 110.547 150.048 111.64C149.461 112.707 148.781 113.693 148.008 114.6C147.341 115.373 146.581 116.027 145.728 116.56C144.901 117.067 143.981 117.32 142.968 117.32ZM148.688 97.8C148.234 97.8 147.874 97.6533 147.608 97.36C147.341 97.04 147.208 96.6267 147.208 96.12C147.208 95.5067 147.368 94.9467 147.688 94.44C148.008 93.9333 148.408 93.52 148.888 93.2C149.368 92.88 149.861 92.72 150.368 92.72C150.821 92.72 151.181 92.88 151.448 93.2C151.714 93.4933 151.848 93.8667 151.848 94.32C151.848 94.9067 151.688 95.4667 151.368 96C151.048 96.5333 150.648 96.9733 150.168 97.32C149.688 97.64 149.194 97.8 148.688 97.8ZM159.964 117.32C158.604 117.32 157.684 116.947 157.204 116.2C156.724 115.453 156.484 114.587 156.484 113.6C156.484 112.88 156.564 112.16 156.724 111.44C156.884 110.72 157.057 110.08 157.244 109.52C157.431 108.96 157.564 108.573 157.644 108.36C157.964 107.4 158.297 106.48 158.644 105.6C159.017 104.693 159.297 104.067 159.484 103.72C159.404 103.853 159.111 104.24 158.604 104.88C158.097 105.52 157.497 106.32 156.804 107.28C156.137 108.213 155.471 109.213 154.804 110.28C154.137 111.32 153.577 112.333 153.124 113.32C152.697 114.28 152.484 115.107 152.484 115.8C152.484 116.28 152.591 116.627 152.804 116.84C152.884 116.92 152.924 116.987 152.924 117.04C152.924 117.173 152.777 117.213 152.484 117.16C151.871 117.053 151.271 116.947 150.684 116.84C150.097 116.707 149.604 116.453 149.204 116.08C148.831 115.68 148.644 115.027 148.644 114.12C148.644 113.4 148.831 112.533 149.204 111.52C149.577 110.48 150.017 109.413 150.524 108.32C151.031 107.227 151.471 106.213 151.844 105.28C151.924 105.067 152.057 104.747 152.244 104.32C152.431 103.867 152.617 103.4 152.804 102.92C153.017 102.413 153.177 101.973 153.284 101.6C153.391 101.2 153.417 100.933 153.364 100.8C153.311 100.693 153.284 100.613 153.284 100.56C153.284 100.24 153.497 100.08 153.924 100.08C154.351 100.08 154.777 100.147 155.204 100.28C155.657 100.387 156.057 100.573 156.404 100.84C156.777 101.107 157.071 101.427 157.284 101.8C157.497 102.173 157.604 102.587 157.604 103.04C157.604 103.333 157.537 103.68 157.404 104.08C157.351 104.267 157.231 104.52 157.044 104.84C156.884 105.133 156.711 105.453 156.524 105.8C156.337 106.147 156.137 106.507 155.924 106.88C155.737 107.253 155.671 107.453 155.724 107.48C156.391 106.307 157.111 105.213 157.884 104.2C158.684 103.16 159.404 102.267 160.044 101.52C160.711 100.773 161.151 100.227 161.364 99.88C161.577 99.72 161.924 99.64 162.404 99.64C162.964 99.64 163.537 99.8133 164.124 100.16C164.711 100.507 165.004 101.133 165.004 102.04C165.004 102.787 164.737 103.693 164.204 104.76C163.057 106.947 162.177 108.92 161.564 110.68C160.951 112.413 160.644 113.693 160.644 114.52C160.644 115.107 160.804 115.4 161.124 115.4C161.497 115.4 161.924 115.16 162.404 114.68C162.884 114.2 163.337 113.627 163.764 112.96C164.351 112.107 164.884 111.2 165.364 110.24C165.871 109.28 166.217 108.613 166.404 108.24C166.484 108.08 166.604 108 166.764 108C166.924 108 167.071 108.093 167.204 108.28C167.364 108.44 167.391 108.627 167.284 108.84C167.097 109.213 166.817 109.733 166.444 110.4C166.097 111.067 165.697 111.787 165.244 112.56C164.791 113.307 164.297 114.027 163.764 114.72C163.177 115.52 162.591 116.16 162.004 116.64C161.417 117.093 160.737 117.32 159.964 117.32ZM170.906 117.6C168.959 117.6 167.546 117.16 166.666 116.28C165.813 115.4 165.386 114.24 165.386 112.8C165.386 111.707 165.613 110.507 166.066 109.2C166.413 108.133 166.879 107.053 167.466 105.96C168.053 104.84 168.733 103.813 169.506 102.88C170.279 101.92 171.133 101.16 172.066 100.6C172.999 100.013 173.986 99.72 175.026 99.72C176.359 99.72 177.439 99.9333 178.266 100.36C179.119 100.76 179.546 101.427 179.546 102.36C179.546 103.053 179.266 103.92 178.706 104.96C177.959 106.4 176.866 107.587 175.426 108.52C173.986 109.453 172.373 109.987 170.586 110.12C170.186 111.213 169.946 112.107 169.866 112.8C169.839 112.933 169.826 113.067 169.826 113.2C169.826 113.307 169.826 113.427 169.826 113.56C169.826 114.44 170.026 115.08 170.426 115.48C170.826 115.853 171.319 116.04 171.906 116.04C172.999 116.04 173.959 115.76 174.786 115.2C175.613 114.64 176.333 113.933 176.946 113.08C177.586 112.227 178.133 111.373 178.586 110.52C178.853 110.04 179.079 109.6 179.266 109.2C179.453 108.773 179.599 108.467 179.706 108.28C179.839 108.067 179.986 107.96 180.146 107.96C180.306 107.96 180.453 108.053 180.586 108.24C180.719 108.4 180.733 108.587 180.626 108.8C180.279 109.493 179.799 110.413 179.186 111.56C178.573 112.707 177.879 113.72 177.106 114.6C176.253 115.613 175.333 116.373 174.346 116.88C173.386 117.36 172.239 117.6 170.906 117.6ZM171.106 108.96C172.306 108.507 173.359 107.693 174.266 106.52C175.199 105.347 175.826 104.053 176.146 102.64C176.173 102.507 176.186 102.387 176.186 102.28C176.213 102.173 176.226 102.067 176.226 101.96C176.226 101.427 176.066 101.16 175.746 101.16C175.479 101.16 175.199 101.347 174.906 101.72C174.479 102.227 174.026 102.92 173.546 103.8C173.066 104.653 172.639 105.493 172.266 106.32C171.893 107.147 171.613 107.773 171.426 108.2L171.106 108.96Z" fill="white"/>
<path d="M68.5696 125.2H69.7246L66.4206 130.562V135H65.4406V130.562L62.1436 125.2H63.2986L65.9306 129.491L68.5696 125.2ZM72.9444 135.182C72.3004 135.182 71.7124 135.016 71.1804 134.685C70.6531 134.354 70.2307 133.91 69.9134 133.355C69.6007 132.795 69.4444 132.177 69.4444 131.5C69.4444 130.987 69.5354 130.508 69.7174 130.065C69.8994 129.617 70.1491 129.225 70.4664 128.889C70.7884 128.548 71.1617 128.282 71.5864 128.091C72.0111 127.9 72.4637 127.804 72.9444 127.804C73.5884 127.804 74.1741 127.97 74.7014 128.301C75.2334 128.632 75.6557 129.078 75.9684 129.638C76.2857 130.198 76.4444 130.819 76.4444 131.5C76.4444 132.009 76.3534 132.485 76.1714 132.928C75.9894 133.371 75.7374 133.763 75.4154 134.104C75.0981 134.44 74.7271 134.704 74.3024 134.895C73.8824 135.086 73.4297 135.182 72.9444 135.182ZM72.9444 134.202C73.4204 134.202 73.8474 134.078 74.2254 133.831C74.6081 133.579 74.9091 133.248 75.1284 132.837C75.3524 132.426 75.4644 131.981 75.4644 131.5C75.4644 131.01 75.3524 130.56 75.1284 130.149C74.9044 129.734 74.6011 129.402 74.2184 129.155C73.8404 128.908 73.4157 128.784 72.9444 128.784C72.4684 128.784 72.0391 128.91 71.6564 129.162C71.2784 129.409 70.9774 129.738 70.7534 130.149C70.5341 130.56 70.4244 131.01 70.4244 131.5C70.4244 132.004 70.5387 132.461 70.7674 132.872C70.9961 133.278 71.3017 133.602 71.6844 133.845C72.0671 134.083 72.4871 134.202 72.9444 134.202ZM77.2817 132.319V128H78.2617V132.123C78.2617 132.506 78.355 132.853 78.5417 133.166C78.7283 133.479 78.978 133.728 79.2907 133.915C79.608 134.102 79.9557 134.195 80.3337 134.195C80.7163 134.195 81.0617 134.102 81.3697 133.915C81.6823 133.728 81.932 133.479 82.1187 133.166C82.3053 132.853 82.3987 132.506 82.3987 132.123V128H83.3787L83.3857 135H82.4057L82.3987 134.02C82.1513 134.375 81.8293 134.657 81.4327 134.867C81.0407 135.077 80.6113 135.182 80.1447 135.182C79.6173 135.182 79.1367 135.054 78.7027 134.797C78.2687 134.54 77.9233 134.195 77.6667 133.761C77.41 133.327 77.2817 132.846 77.2817 132.319ZM84.7804 135V128H85.7604V128.966C86.0078 128.611 86.3298 128.329 86.7264 128.119C87.1231 127.909 87.5548 127.804 88.0214 127.804C88.2921 127.804 88.5534 127.839 88.8054 127.909L88.4064 128.882C88.2104 128.821 88.0191 128.791 87.8324 128.791C87.4544 128.791 87.1068 128.884 86.7894 129.071C86.4768 129.258 86.2271 129.507 86.0404 129.82C85.8538 130.133 85.7604 130.48 85.7604 130.863V135H84.7804ZM98.9016 128H99.8816V135H98.9016L98.8666 133.698C98.638 134.141 98.3183 134.501 97.9076 134.776C97.497 135.047 97.007 135.182 96.4376 135.182C95.9243 135.182 95.4436 135.086 94.9956 134.895C94.5476 134.699 94.1533 134.431 93.8126 134.09C93.472 133.749 93.206 133.355 93.0146 132.907C92.8233 132.459 92.7276 131.978 92.7276 131.465C92.7276 130.961 92.821 130.487 93.0076 130.044C93.199 129.601 93.4603 129.211 93.7916 128.875C94.1276 128.539 94.515 128.278 94.9536 128.091C95.397 127.9 95.8706 127.804 96.3746 127.804C96.958 127.804 97.4666 127.944 97.9006 128.224C98.3346 128.499 98.68 128.861 98.9366 129.309L98.9016 128ZM96.4166 134.23C96.916 134.23 97.3453 134.109 97.7046 133.866C98.064 133.619 98.3393 133.287 98.5306 132.872C98.7266 132.457 98.8246 131.999 98.8246 131.5C98.8246 130.987 98.7266 130.525 98.5306 130.114C98.3346 129.699 98.057 129.37 97.6976 129.127C97.3383 128.884 96.9113 128.763 96.4166 128.763C95.922 128.763 95.4693 128.887 95.0586 129.134C94.6526 129.377 94.3283 129.706 94.0856 130.121C93.8476 130.536 93.7286 130.996 93.7286 131.5C93.7286 132.009 93.8523 132.471 94.0996 132.886C94.347 133.297 94.6736 133.623 95.0796 133.866C95.4903 134.109 95.936 134.23 96.4166 134.23ZM101.282 135V128H102.262V128.966C102.51 128.611 102.832 128.329 103.228 128.119C103.625 127.909 104.057 127.804 104.523 127.804C104.794 127.804 105.055 127.839 105.307 127.909L104.908 128.882C104.712 128.821 104.521 128.791 104.334 128.791C103.956 128.791 103.609 128.884 103.291 129.071C102.979 129.258 102.729 129.507 102.542 129.82C102.356 130.133 102.262 130.48 102.262 130.863V135H101.282ZM109.863 128.98H108.19L108.183 135H107.203L107.21 128.98H105.943V128H107.21L107.203 125.802H108.183L108.19 128H109.863V128.98ZM111.058 128H112.038V135H111.058V128ZM111.555 126.775C111.396 126.775 111.261 126.724 111.149 126.621C111.041 126.514 110.988 126.381 110.988 126.222C110.988 126.063 111.041 125.933 111.149 125.83C111.261 125.723 111.396 125.669 111.555 125.669C111.709 125.669 111.839 125.723 111.947 125.83C112.059 125.933 112.115 126.063 112.115 126.222C112.115 126.381 112.061 126.514 111.954 126.621C111.846 126.724 111.713 126.775 111.555 126.775ZM115.832 135.133C115.449 135.124 115.076 135.054 114.712 134.923C114.348 134.792 114.031 134.615 113.76 134.391C113.489 134.167 113.296 133.913 113.179 133.628L114.026 133.264C114.101 133.446 114.238 133.614 114.439 133.768C114.644 133.917 114.878 134.039 115.139 134.132C115.4 134.221 115.659 134.265 115.916 134.265C116.201 134.265 116.467 134.218 116.714 134.125C116.961 134.032 117.162 133.899 117.316 133.726C117.475 133.549 117.554 133.341 117.554 133.103C117.554 132.846 117.47 132.646 117.302 132.501C117.134 132.352 116.922 132.235 116.665 132.151C116.408 132.062 116.145 131.978 115.874 131.899C115.379 131.764 114.943 131.614 114.565 131.451C114.187 131.288 113.891 131.08 113.676 130.828C113.466 130.571 113.361 130.242 113.361 129.841C113.361 129.416 113.48 129.05 113.718 128.742C113.961 128.429 114.276 128.189 114.663 128.021C115.055 127.848 115.473 127.762 115.916 127.762C116.485 127.762 117.003 127.886 117.47 128.133C117.941 128.38 118.282 128.709 118.492 129.12L117.701 129.589C117.617 129.398 117.484 129.232 117.302 129.092C117.12 128.952 116.912 128.842 116.679 128.763C116.45 128.684 116.217 128.642 115.979 128.637C115.68 128.632 115.403 128.677 115.146 128.77C114.889 128.859 114.682 128.992 114.523 129.169C114.369 129.346 114.292 129.563 114.292 129.82C114.292 130.077 114.369 130.273 114.523 130.408C114.677 130.539 114.885 130.646 115.146 130.73C115.412 130.809 115.711 130.903 116.042 131.01C116.467 131.145 116.866 131.299 117.239 131.472C117.612 131.645 117.913 131.859 118.142 132.116C118.371 132.373 118.483 132.697 118.478 133.089C118.478 133.509 118.352 133.875 118.1 134.188C117.848 134.501 117.521 134.741 117.12 134.909C116.719 135.072 116.289 135.147 115.832 135.133ZM125.384 128H126.364V135H125.384L125.349 133.698C125.12 134.141 124.801 134.501 124.39 134.776C123.979 135.047 123.489 135.182 122.92 135.182C122.407 135.182 121.926 135.086 121.478 134.895C121.03 134.699 120.636 134.431 120.295 134.09C119.954 133.749 119.688 133.355 119.497 132.907C119.306 132.459 119.21 131.978 119.21 131.465C119.21 130.961 119.303 130.487 119.49 130.044C119.681 129.601 119.943 129.211 120.274 128.875C120.61 128.539 120.997 128.278 121.436 128.091C121.879 127.9 122.353 127.804 122.857 127.804C123.44 127.804 123.949 127.944 124.383 128.224C124.817 128.499 125.162 128.861 125.419 129.309L125.384 128ZM122.899 134.23C123.398 134.23 123.828 134.109 124.187 133.866C124.546 133.619 124.822 133.287 125.013 132.872C125.209 132.457 125.307 131.999 125.307 131.5C125.307 130.987 125.209 130.525 125.013 130.114C124.817 129.699 124.539 129.37 124.18 129.127C123.821 128.884 123.394 128.763 122.899 128.763C122.404 128.763 121.952 128.887 121.541 129.134C121.135 129.377 120.811 129.706 120.568 130.121C120.33 130.536 120.211 130.996 120.211 131.5C120.211 132.009 120.335 132.471 120.582 132.886C120.829 133.297 121.156 133.623 121.562 133.866C121.973 134.109 122.418 134.23 122.899 134.23ZM133.869 130.667V135H132.889V130.863C132.889 130.48 132.795 130.133 132.609 129.82C132.422 129.507 132.172 129.258 131.86 129.071C131.547 128.884 131.199 128.791 130.817 128.791C130.439 128.791 130.091 128.884 129.774 129.071C129.461 129.258 129.211 129.507 129.025 129.82C128.838 130.133 128.745 130.48 128.745 130.863V135H127.765V128H128.745V128.966C128.992 128.611 129.314 128.329 129.711 128.119C130.107 127.909 130.539 127.804 131.006 127.804C131.533 127.804 132.014 127.932 132.448 128.189C132.882 128.446 133.227 128.791 133.484 129.225C133.74 129.659 133.869 130.14 133.869 130.667ZM140.083 126.173V128H142.183V128.98H140.083V135H139.103V128.98H138.144V128H139.103V126.173C139.103 125.832 139.185 125.524 139.348 125.249C139.516 124.969 139.74 124.747 140.02 124.584C140.3 124.416 140.61 124.332 140.951 124.332C141.198 124.332 141.436 124.381 141.665 124.479C141.898 124.577 142.106 124.722 142.288 124.913L141.588 125.606C141.513 125.513 141.418 125.44 141.301 125.389C141.189 125.338 141.072 125.312 140.951 125.312C140.713 125.312 140.508 125.396 140.335 125.564C140.167 125.732 140.083 125.935 140.083 126.173ZM143.378 135V124.5H144.358V135H143.378ZM149.069 135.182C148.425 135.182 147.837 135.016 147.305 134.685C146.778 134.354 146.356 133.91 146.038 133.355C145.726 132.795 145.569 132.177 145.569 131.5C145.569 130.987 145.66 130.508 145.842 130.065C146.024 129.617 146.274 129.225 146.591 128.889C146.913 128.548 147.287 128.282 147.711 128.091C148.136 127.9 148.589 127.804 149.069 127.804C149.713 127.804 150.299 127.97 150.826 128.301C151.358 128.632 151.781 129.078 152.093 129.638C152.411 130.198 152.569 130.819 152.569 131.5C152.569 132.009 152.478 132.485 152.296 132.928C152.114 133.371 151.862 133.763 151.54 134.104C151.223 134.44 150.852 134.704 150.427 134.895C150.007 135.086 149.555 135.182 149.069 135.182ZM149.069 134.202C149.545 134.202 149.972 134.078 150.35 133.831C150.733 133.579 151.034 133.248 151.253 132.837C151.477 132.426 151.589 131.981 151.589 131.5C151.589 131.01 151.477 130.56 151.253 130.149C151.029 129.734 150.726 129.402 150.343 129.155C149.965 128.908 149.541 128.784 149.069 128.784C148.593 128.784 148.164 128.91 147.781 129.162C147.403 129.409 147.102 129.738 146.878 130.149C146.659 130.56 146.549 131.01 146.549 131.5C146.549 132.004 146.664 132.461 146.892 132.872C147.121 133.278 147.427 133.602 147.809 133.845C148.192 134.083 148.612 134.202 149.069 134.202ZM153.755 135V128H154.735V128.966C154.982 128.611 155.304 128.329 155.701 128.119C156.098 127.909 156.529 127.804 156.996 127.804C157.267 127.804 157.528 127.839 157.78 127.909L157.381 128.882C157.185 128.821 156.994 128.791 156.807 128.791C156.429 128.791 156.081 128.884 155.764 129.071C155.451 129.258 155.202 129.507 155.015 129.82C154.828 130.133 154.735 130.48 154.735 130.863V135H153.755ZM158.663 128H159.643V135H158.663V128ZM159.16 126.775C159.002 126.775 158.866 126.724 158.754 126.621C158.647 126.514 158.593 126.381 158.593 126.222C158.593 126.063 158.647 125.933 158.754 125.83C158.866 125.723 159.002 125.669 159.16 125.669C159.314 125.669 159.445 125.723 159.552 125.83C159.664 125.933 159.72 126.063 159.72 126.222C159.72 126.381 159.667 126.514 159.559 126.621C159.452 126.724 159.319 126.775 159.16 126.775ZM163.438 135.133C163.055 135.124 162.682 135.054 162.318 134.923C161.954 134.792 161.636 134.615 161.366 134.391C161.095 134.167 160.901 133.913 160.785 133.628L161.632 133.264C161.706 133.446 161.844 133.614 162.045 133.768C162.25 133.917 162.483 134.039 162.745 134.132C163.006 134.221 163.265 134.265 163.522 134.265C163.806 134.265 164.072 134.218 164.32 134.125C164.567 134.032 164.768 133.899 164.922 133.726C165.08 133.549 165.16 133.341 165.16 133.103C165.16 132.846 165.076 132.646 164.908 132.501C164.74 132.352 164.527 132.235 164.271 132.151C164.014 132.062 163.75 131.978 163.48 131.899C162.985 131.764 162.549 131.614 162.171 131.451C161.793 131.288 161.496 131.08 161.282 130.828C161.072 130.571 160.967 130.242 160.967 129.841C160.967 129.416 161.086 129.05 161.324 128.742C161.566 128.429 161.881 128.189 162.269 128.021C162.661 127.848 163.078 127.762 163.522 127.762C164.091 127.762 164.609 127.886 165.076 128.133C165.547 128.38 165.888 128.709 166.098 129.12L165.307 129.589C165.223 129.398 165.09 129.232 164.908 129.092C164.726 128.952 164.518 128.842 164.285 128.763C164.056 128.684 163.823 128.642 163.585 128.637C163.286 128.632 163.008 128.677 162.752 128.77C162.495 128.859 162.287 128.992 162.129 129.169C161.975 129.346 161.898 129.563 161.898 129.82C161.898 130.077 161.975 130.273 162.129 130.408C162.283 130.539 162.49 130.646 162.752 130.73C163.018 130.809 163.316 130.903 163.648 131.01C164.072 131.145 164.471 131.299 164.845 131.472C165.218 131.645 165.519 131.859 165.748 132.116C165.976 132.373 166.088 132.697 166.084 133.089C166.084 133.509 165.958 133.875 165.706 134.188C165.454 134.501 165.127 134.741 164.726 134.909C164.324 135.072 163.895 135.147 163.438 135.133ZM170.867 128.98H169.194L169.187 135H168.207L168.214 128.98H166.947V128H168.214L168.207 125.802H169.187L169.194 128H170.867V128.98Z" fill="white"/>
<path d="M116.918 23.6384L116.5 23.0004L116.082 23.6384C114.645 25.8306 112.255 27.319 109.512 27.4846C109.662 24.2333 111.232 22.2904 112.85 21.1273C114.434 19.9897 116.074 19.5956 116.502 19.5086C116.923 19.5916 118.564 19.9848 120.149 21.1244C121.768 22.2883 123.338 24.233 123.488 27.4846C120.745 27.319 118.355 25.8306 116.918 23.6384ZM116.036 31.8684L116.455 32.553L116.885 31.8754C117.413 31.0433 117.78 30.1244 117.979 29.167L118.045 28.8524L117.786 28.6621L116.796 27.9346L116.502 27.7183L116.206 27.9329L115.194 28.6679L114.937 28.8545L114.996 29.1666C115.18 30.124 115.531 31.0432 116.036 31.8684ZM116.558 20.1609L116.58 20.0289L116.5 20.016L116.488 20.0179L116.448 19.9371L116.412 20.0303L116.399 20.0326C116.388 20.0346 116.372 20.0375 116.352 20.0414C116.313 20.0491 116.258 20.0607 116.189 20.0771C116.05 20.11 115.855 20.1621 115.618 20.2409C115.146 20.3983 114.504 20.6633 113.82 21.0965C112.443 21.9671 110.9 23.5129 110.211 26.1877L109.988 27.0507L110.841 26.7908C113.112 26.0984 114.641 24.7429 115.599 23.5675C116.004 23.0716 116.308 22.6059 116.525 22.2317C116.799 22.6758 117.19 23.2547 117.685 23.8512C118.716 25.094 120.267 26.493 122.228 26.799L122.979 26.9163L122.789 26.18C122.1 23.5088 120.557 21.965 119.18 21.0954C118.495 20.6628 117.854 20.398 117.381 20.2407C117.145 20.162 116.95 20.1099 116.811 20.0771C116.742 20.0607 116.687 20.0491 116.648 20.0414C116.628 20.0375 116.612 20.0346 116.601 20.0326L116.587 20.0301L116.583 20.0294L116.581 20.0291L116.58 20.029C116.58 20.029 116.58 20.0289 116.559 20.161L116.558 20.1609ZM116.456 33.2712C115.257 31.9161 114.579 30.2653 114.401 28.5581C115.158 28.1248 115.862 27.6042 116.498 27.0072C117.131 27.6061 117.835 28.1263 118.593 28.5564C118.383 30.2509 117.674 31.9031 116.456 33.2712Z" stroke="white"/>
<path d="M116.082 191.362L116.5 192L116.918 191.362C118.355 189.169 120.745 187.681 123.488 187.515C123.338 190.767 121.768 192.71 120.15 193.873C118.566 195.01 116.926 195.404 116.498 195.491C116.077 195.408 114.436 195.015 112.851 193.876C111.232 192.712 109.662 190.767 109.512 187.515C112.255 187.681 114.645 189.169 116.082 191.362ZM116.964 183.132L116.545 182.447L116.115 183.125C115.587 183.957 115.22 184.876 115.021 185.833L114.955 186.148L115.214 186.338L116.204 187.065L116.498 187.282L116.794 187.067L117.806 186.332L118.063 186.145L118.004 185.833C117.82 184.876 117.469 183.957 116.964 183.132ZM116.442 194.839L116.42 194.971L116.5 194.984L116.512 194.982L116.552 195.063L116.588 194.97L116.601 194.967C116.612 194.965 116.628 194.963 116.648 194.959C116.687 194.951 116.742 194.939 116.811 194.923C116.95 194.89 117.145 194.838 117.382 194.759C117.854 194.602 118.496 194.337 119.18 193.904C120.557 193.033 122.1 191.487 122.789 188.812L123.012 187.949L122.159 188.209C119.888 188.902 118.359 190.257 117.401 191.433C116.996 191.928 116.692 192.394 116.475 192.768C116.201 192.324 115.81 191.745 115.315 191.149C114.284 189.906 112.733 188.507 110.772 188.201L110.021 188.084L110.211 188.82C110.9 191.491 112.443 193.035 113.82 193.905C114.505 194.337 115.146 194.602 115.619 194.759C115.855 194.838 116.05 194.89 116.189 194.923C116.258 194.939 116.313 194.951 116.352 194.959C116.372 194.963 116.388 194.965 116.399 194.967L116.413 194.97L116.417 194.971L116.419 194.971L116.42 194.971C116.42 194.971 116.42 194.971 116.441 194.839L116.442 194.839ZM116.544 181.729C117.743 183.084 118.421 184.735 118.599 186.442C117.842 186.875 117.138 187.396 116.502 187.993C115.869 187.394 115.165 186.874 114.407 186.444C114.617 184.749 115.326 183.097 116.544 181.729Z" stroke="white"/>
<defs>
<filter id="filter0_d_352_4232" x="9.28427" y="8.28426" width="214.151" height="214.151" filterUnits="userSpaceOnUse" color-interpolation-filters="sRGB">
<feFlood flood-opacity="0" result="BackgroundImageFix"/>
<feColorMatrix in="SourceAlpha" type="matrix" values="0 0 0 0 0 0 0 0 0 0 0 0 0 0 0 0 0 0 127 0" result="hardAlpha"/>
<feOffset dy="8"/>
<feGaussianBlur stdDeviation="4"/>
<feComposite in2="hardAlpha" operator="out"/>
<feColorMatrix type="matrix" values="0 0 0 0 0 0 0 0 0 0 0 0 0 0 0 0 0 0 0.5 0"/>
<feBlend mode="normal" in2="BackgroundImageFix" result="effect1_dropShadow_352_4232"/>
<feBlend mode="normal" in="SourceGraphic" in2="effect1_dropShadow_352_4232" result="shape"/>
</filter>
</defs>
</svg>
